<svg width="12.000000" height="10.000000" viewBox="0 0 12 10" fill="none" xmlns="http://www.w3.org/2000/svg" xmlns:xlink="http://www.w3.org/1999/xlink">
	<desc>
			Created with Pixso.
	</desc>
	<defs>
		<clipPath id="clip1_117">
			<rect id="IMAGE" width="12.000000" height="10.000000" fill="white" fill-opacity="0"/>
		</clipPath>
	</defs>
	<g clip-path="url(#clip1_117)">
		<mask id="mask1_119" mask-type="alpha" maskUnits="userSpaceOnUse" x="0.000000" y="-1.000000" width="12.000000" height="12.000000">
			<path id="Vector" d="M0 -1L12 -1L12 11L0 11L0 -1Z" fill="#FFFFFF" fill-opacity="1.000000" fill-rule="evenodd"/>
		</mask>
		<g mask="url(#mask1_119)">
			<path id="Vector" d="M10.87 1.49L11.62 0L10.5 0.74L10.28 0.85C9.83 0.33 9.17 0 8.43 0C7.09 0 6 0.9 6 2.24C6 2.42 6.02 2.79 6.06 2.96L6 2.99C6 2.99 1.12 2.24 0.75 0.37C0.75 0.37 -0.38 2.24 1.5 3.74C1.5 3.74 0.75 4.11 0.37 3.74C0.37 3.74 0.37 4.86 2.25 5.98C2.25 5.98 1.5 6.35 1.12 5.98C1.12 5.98 2.62 7.48 3.37 7.48C3.37 7.48 3.37 8.6 0 8.6C0 8.6 4.26 11.4 8.25 8.22C10.27 6.61 10.76 4.56 10.79 3.02C10.84 2.83 10.87 2.63 10.87 2.43L10.87 2.24L12 1.12L10.87 1.49Z" fill="#FFFFFF" fill-opacity="1.000000" fill-rule="evenodd"/>
		</g>
	</g>
</svg>
