<svg width="12.000000" height="12.000000" viewBox="0 0 12 12" fill="none" xmlns="http://www.w3.org/2000/svg" xmlns:xlink="http://www.w3.org/1999/xlink">
	<desc>
			Created with Pixso.
	</desc>
	<defs/>
	<path id="Vector" d="M2 1C1.44 1 1 1.44 1 2L1 10C1 10.55 1.44 11 2 11L10 11C10.55 11 11 10.55 11 10L11 2C11 1.44 10.55 1 10 1L2 1ZM2 0L10 0C11.1 0 12 0.89 12 2L12 10C12 11.1 11.1 12 10 12L2 12C0.89 12 0 11.1 0 10L0 2C0 0.89 0.89 0 2 0Z" fill="#FFFFFF" fill-opacity="1.000000" fill-rule="nonzero"/>
	<path id="Vector" d="M6 7C6.55 7 7 6.55 7 6C7 5.44 6.55 5 6 5C5.44 5 5 5.44 5 6C5 6.55 5.44 7 6 7ZM6 8C4.89 8 4 7.1 4 6C4 4.89 4.89 4 6 4C7.1 4 8 4.89 8 6C8 7.1 7.1 8 6 8Z" fill="#FFFFFF" fill-opacity="1.000000" fill-rule="nonzero"/>
	<path id="Vector" d="M10 3C10 3.55 9.55 4 9 4C8.44 4 8 3.55 8 3C8 2.44 8.44 2 9 2C9.55 2 10 2.44 10 3Z" fill="#FFFFFF" fill-opacity="1.000000" fill-rule="evenodd"/>
</svg>
